<svg width="38" height="38" viewBox="0 0 38 38" fill="none" xmlns="http://www.w3.org/2000/svg">
<path d="M20.1894 0.689774C20.6367 1.14962 20.8709 1.73487 20.8921 2.44555C20.9132 3.15622 20.6993 3.74148 20.2504 4.20132L8.29538 16.4918L35.5602 16.4918C36.2515 16.4918 36.8313 16.7325 37.2998 17.2141C37.7682 17.6957 38.0016 18.291 38 19C38 19.7107 37.7658 20.3068 37.2973 20.7884C36.8289 21.27 36.2498 21.5099 35.5602 21.5083L8.29538 21.5083L20.2504 33.7987C20.6977 34.2585 20.9116 34.8438 20.8921 35.5545C20.8726 36.2651 20.6383 36.8504 20.1894 37.3102C19.7421 37.7701 19.1728 38 18.4816 38C17.7903 38 17.221 37.7701 16.7737 37.3102L0.670986 20.7558C0.427006 20.5468 0.25378 20.2851 0.15131 19.9707C0.0488358 19.6563 -0.00158691 19.3328 3.8147e-05 19C3.8147e-05 18.6656 0.0504646 18.352 0.15131 18.0594C0.252151 17.7668 0.425381 17.4951 0.670986 17.2442L16.7737 0.689774C17.221 0.229927 17.7903 0 18.4816 0C19.1728 0 19.7421 0.229927 20.1894 0.689774Z" fill="#797C93"/>
</svg>
