<svg width="76" height="84" viewBox="0 0 76 84" fill="none" xmlns="http://www.w3.org/2000/svg">
<path fill-rule="evenodd" clip-rule="evenodd" d="M19.8415 8.49663C20.0685 6.38067 21.0697 4.42334 22.6527 3.00101C24.2357 1.57868 26.2886 0.791781 28.4167 0.791626H47.5833C49.7114 0.791781 51.7643 1.57868 53.3473 3.00101C54.9303 4.42334 55.9315 6.38067 56.1585 8.49663C59.0872 8.55796 61.6133 8.70746 63.7753 9.10613C66.681 9.64279 69.1535 10.6548 71.166 12.6711C73.4737 14.975 74.4627 17.8845 74.9303 21.3345C75.375 24.6541 75.375 28.8823 75.375 34.1225V57.5441C75.375 62.7843 75.375 67.0125 74.9303 70.336C74.4627 73.786 73.4737 76.6916 71.166 78.9993C68.8583 81.307 65.9527 82.296 62.5027 82.7636C59.1792 83.2083 54.951 83.2083 49.7108 83.2083H26.2892C21.049 83.2083 16.8208 83.2083 13.4973 82.7636C10.0473 82.296 7.14167 81.307 4.834 78.9993C2.52633 76.6916 1.53733 73.786 1.0735 70.336C0.625 67.0125 0.625 62.7843 0.625 57.5441V34.1225C0.625 28.8823 0.625 24.6541 1.0735 21.3306C1.5335 17.8806 2.53017 14.975 4.834 12.6673C6.8465 10.6548 9.319 9.63896 12.2247 9.10613C14.3867 8.70746 16.9167 8.55796 19.8415 8.49663ZM19.8492 14.2466C17.0968 14.308 14.9732 14.446 13.2635 14.7603C11.0938 15.159 9.83267 15.803 8.90117 16.7345C7.83933 17.7963 7.14933 19.2836 6.76983 22.1011C6.38267 24.9915 6.375 28.8325 6.375 34.3333V57.3333C6.375 62.8341 6.38267 66.6713 6.76983 69.5693C7.14933 72.383 7.84317 73.8703 8.90117 74.9321C9.963 75.994 11.4503 76.684 14.2678 77.0635C17.1582 77.4506 20.9992 77.4583 26.5 77.4583H49.5C55.0008 77.4583 58.838 77.4506 61.736 77.0635C64.5497 76.684 66.037 75.9901 67.0988 74.9321C68.1607 73.8703 68.8507 72.383 69.2302 69.5655C69.6173 66.6713 69.625 62.8341 69.625 57.3333V34.3333C69.625 28.8325 69.6173 24.9915 69.2302 22.0973C68.8507 19.2836 68.1568 17.7963 67.0988 16.7345C66.1635 15.803 64.9062 15.1628 62.7365 14.7603C61.0268 14.446 58.9032 14.308 56.1508 14.2505C55.9056 16.3506 54.8974 18.2874 53.318 19.693C51.7385 21.0987 49.6977 21.8751 47.5833 21.875H28.4167C26.3017 21.875 24.2605 21.098 22.6809 19.6916C21.1013 18.2852 20.0936 16.3474 19.8492 14.2466ZM28.4167 6.54163C27.6542 6.54163 26.9229 6.84453 26.3837 7.38369C25.8446 7.92286 25.5417 8.65413 25.5417 9.41663V13.25C25.5417 14.837 26.8297 16.125 28.4167 16.125H47.5833C48.3458 16.125 49.0771 15.8221 49.6163 15.2829C50.1554 14.7437 50.4583 14.0125 50.4583 13.25V9.41663C50.4583 8.65413 50.1554 7.92286 49.6163 7.38369C49.0771 6.84453 48.3458 6.54163 47.5833 6.54163H28.4167ZM15.9583 36.25C15.9583 35.4875 16.2612 34.7562 16.8004 34.217C17.3396 33.6779 18.0708 33.375 18.8333 33.375H20.75C21.5125 33.375 22.2438 33.6779 22.7829 34.217C23.3221 34.7562 23.625 35.4875 23.625 36.25C23.625 37.0125 23.3221 37.7437 22.7829 38.2829C22.2438 38.8221 21.5125 39.125 20.75 39.125H18.8333C18.0708 39.125 17.3396 38.8221 16.8004 38.2829C16.2612 37.7437 15.9583 37.0125 15.9583 36.25ZM29.375 36.25C29.375 35.4875 29.6779 34.7562 30.2171 34.217C30.7562 33.6779 31.4875 33.375 32.25 33.375H57.1667C57.9292 33.375 58.6604 33.6779 59.1996 34.217C59.7388 34.7562 60.0417 35.4875 60.0417 36.25C60.0417 37.0125 59.7388 37.7437 59.1996 38.2829C58.6604 38.8221 57.9292 39.125 57.1667 39.125H32.25C31.4875 39.125 30.7562 38.8221 30.2171 38.2829C29.6779 37.7437 29.375 37.0125 29.375 36.25ZM15.9583 49.6666C15.9583 48.9041 16.2612 48.1729 16.8004 47.6337C17.3396 47.0945 18.0708 46.7916 18.8333 46.7916H20.75C21.5125 46.7916 22.2438 47.0945 22.7829 47.6337C23.3221 48.1729 23.625 48.9041 23.625 49.6666C23.625 50.4291 23.3221 51.1604 22.7829 51.6996C22.2438 52.2387 21.5125 52.5416 20.75 52.5416H18.8333C18.0708 52.5416 17.3396 52.2387 16.8004 51.6996C16.2612 51.1604 15.9583 50.4291 15.9583 49.6666ZM29.375 49.6666C29.375 48.9041 29.6779 48.1729 30.2171 47.6337C30.7562 47.0945 31.4875 46.7916 32.25 46.7916H57.1667C57.9292 46.7916 58.6604 47.0945 59.1996 47.6337C59.7388 48.1729 60.0417 48.9041 60.0417 49.6666C60.0417 50.4291 59.7388 51.1604 59.1996 51.6996C58.6604 52.2387 57.9292 52.5416 57.1667 52.5416H32.25C31.4875 52.5416 30.7562 52.2387 30.2171 51.6996C29.6779 51.1604 29.375 50.4291 29.375 49.6666ZM15.9583 63.0833C15.9583 62.3208 16.2612 61.5895 16.8004 61.0504C17.3396 60.5112 18.0708 60.2083 18.8333 60.2083H20.75C21.5125 60.2083 22.2438 60.5112 22.7829 61.0504C23.3221 61.5895 23.625 62.3208 23.625 63.0833C23.625 63.8458 23.3221 64.5771 22.7829 65.1162C22.2438 65.6554 21.5125 65.9583 20.75 65.9583H18.8333C18.0708 65.9583 17.3396 65.6554 16.8004 65.1162C16.2612 64.5771 15.9583 63.8458 15.9583 63.0833ZM29.375 63.0833C29.375 62.3208 29.6779 61.5895 30.2171 61.0504C30.7562 60.5112 31.4875 60.2083 32.25 60.2083H57.1667C57.9292 60.2083 58.6604 60.5112 59.1996 61.0504C59.7388 61.5895 60.0417 62.3208 60.0417 63.0833C60.0417 63.8458 59.7388 64.5771 59.1996 65.1162C58.6604 65.6554 57.9292 65.9583 57.1667 65.9583H32.25C31.4875 65.9583 30.7562 65.6554 30.2171 65.1162C29.6779 64.5771 29.375 63.8458 29.375 63.0833Z" fill="#797C93"/>
</svg>
