<?xml version="1.0" encoding="UTF-8" standalone="no"?>
<svg
   width="38"
   height="38"
   viewBox="0 0 38 38"
   fill="none"
   version="1.1"
   id="svg4"
   sodipodi:docname="foward.svg"
   inkscape:version="1.2.1 (9c6d41e410, 2022-07-14)"
   xmlns:inkscape="http://www.inkscape.org/namespaces/inkscape"
   xmlns:sodipodi="http://sodipodi.sourceforge.net/DTD/sodipodi-0.dtd"
   xmlns="http://www.w3.org/2000/svg"
   xmlns:svg="http://www.w3.org/2000/svg">
  <defs
     id="defs8" />
  <sodipodi:namedview
     id="namedview6"
     pagecolor="#ffffff"
     bordercolor="#000000"
     borderopacity="0.25"
     inkscape:showpageshadow="2"
     inkscape:pageopacity="0.0"
     inkscape:pagecheckerboard="0"
     inkscape:deskcolor="#d1d1d1"
     showgrid="false"
     inkscape:zoom="21.421053"
     inkscape:cx="16.385749"
     inkscape:cy="19.023342"
     inkscape:window-width="1920"
     inkscape:window-height="1001"
     inkscape:window-x="-9"
     inkscape:window-y="-9"
     inkscape:window-maximized="1"
     inkscape:current-layer="svg4" />
  <path
     d="m 17.810608,0.689774 c -0.4473,0.459846 -0.6815,1.045096 -0.7027,1.755776 -0.0211,0.71067 0.1928,1.29593 0.6417,1.75577 L 29.704628,16.4918 H 2.4398083 c -0.6913,0 -1.2711,0.2407 -1.73960004,0.7223 -0.4684,0.4816 -0.7018,1.0769 -0.7001999964266,1.7859 0,0.7107 0.2341999964266,1.3068 0.7026999964266,1.7884 C 1.1711083,21.27 1.7502083,21.5099 2.4398083,21.5083 H 29.704628 l -11.95502,12.2904 c -0.4473,0.4598 -0.6612,1.0451 -0.6417,1.7558 0.0195,0.7106 0.2538,1.2959 0.7027,1.7557 0.4473,0.4599 1.0166,0.6898 1.7078,0.6898 0.6913,0 1.2606,-0.2299 1.7079,-0.6898 L 37.329022,20.7558 c 0.24398,-0.209 0.417206,-0.4707 0.519676,-0.7851 0.102474,-0.3144 0.152897,-0.6379 0.151272,-0.9707 0,-0.3344 -0.05043,-0.648 -0.151272,-0.9406 -0.100841,-0.2926 -0.274071,-0.5643 -0.519676,-0.8152 L 21.226308,0.689774 C 20.779008,0.229927 20.209708,0 19.518408,0 c -0.6912,0 -1.2605,0.229927 -1.7078,0.689774 z"
     fill="#797c93"
     id="path2" />
</svg>
