<svg width="74" height="74" viewBox="0 0 74 74" fill="none" xmlns="http://www.w3.org/2000/svg">
<path d="M36.6667 73.3333C31.5944 73.3333 26.8278 72.3702 22.3667 70.444C17.9056 68.5202 14.025 65.9083 10.725 62.6083C7.425 59.3083 4.81311 55.4278 2.88933 50.9667C0.963111 46.5056 0 41.7389 0 36.6667C0 31.5944 0.963111 26.8278 2.88933 22.3667C4.81311 17.9056 7.425 14.025 10.725 10.725C14.025 7.425 17.9056 4.81189 22.3667 2.88567C26.8278 0.961889 31.5944 0 36.6667 0C41.7389 0 46.5056 0.961889 50.9667 2.88567C55.4278 4.81189 59.3083 7.425 62.6083 10.725C65.9083 14.025 68.5202 17.9056 70.444 22.3667C72.3702 26.8278 73.3333 31.5944 73.3333 36.6667C73.3333 41.7389 72.3702 46.5056 70.444 50.9667C68.5202 55.4278 65.9083 59.3083 62.6083 62.6083C59.3083 65.9083 55.4278 68.5202 50.9667 70.444C46.5056 72.3702 41.7389 73.3333 36.6667 73.3333ZM36.6667 66C44.8556 66 51.7917 63.1583 57.475 57.475C63.1583 51.7917 66 44.8556 66 36.6667C66 28.4778 63.1583 21.5417 57.475 15.8583C51.7917 10.175 44.8556 7.33333 36.6667 7.33333C28.4778 7.33333 21.5417 10.175 15.8583 15.8583C10.175 21.5417 7.33333 28.4778 7.33333 36.6667C7.33333 44.8556 10.175 51.7917 15.8583 57.475C21.5417 63.1583 28.4778 66 36.6667 66Z" fill="#C4C5D0"/>
</svg>
