<?xml version="1.0" encoding="UTF-8" standalone="no"?>
<svg
   width="85"
   height="85"
   viewBox="0 0 85 85"
   fill="none"
   version="1.1"
   id="svg27"
   sodipodi:docname="State_0.svg"
   xml:space="preserve"
   inkscape:version="1.2.1 (9c6d41e410, 2022-07-14)"
   xmlns:inkscape="http://www.inkscape.org/namespaces/inkscape"
   xmlns:sodipodi="http://sodipodi.sourceforge.net/DTD/sodipodi-0.dtd"
   xmlns="http://www.w3.org/2000/svg"
   xmlns:svg="http://www.w3.org/2000/svg"><sodipodi:namedview
     id="namedview29"
     pagecolor="#ffffff"
     bordercolor="#000000"
     borderopacity="0.25"
     inkscape:showpageshadow="2"
     inkscape:pageopacity="0.0"
     inkscape:pagecheckerboard="0"
     inkscape:deskcolor="#d1d1d1"
     showgrid="false"
     inkscape:zoom="6.1890852"
     inkscape:cx="26.175112"
     inkscape:cy="29.164245"
     inkscape:window-width="1920"
     inkscape:window-height="1001"
     inkscape:window-x="-9"
     inkscape:window-y="-9"
     inkscape:window-maximized="1"
     inkscape:current-layer="svg27" /><g
     filter="url(#filter0_d_427_8)"
     id="g6"
     transform="translate(-4)"><path
       d="M 89,42.5 C 89,65.9721 69.9721,85 46.5,85 23.0279,85 4,65.9721 4,42.5 4,19.0279 23.0279,0 46.5,0 69.9721,0 89,19.0279 89,42.5 Z"
       fill="#ffffff"
       id="path2" /><path
       d="M 88,42.5 C 88,65.4198 69.4198,84 46.5,84 23.5802,84 5,65.4198 5,42.5 5,19.5802 23.5802,1 46.5,1 69.4198,1 88,19.5802 88,42.5 Z"
       stroke="#797c93"
       stroke-opacity="0.5"
       stroke-width="2"
       id="path4" /></g><defs
     id="defs25"><filter
       id="filter0_d_427_8"
       x="0"
       y="0"
       width="93"
       height="93"
       filterUnits="userSpaceOnUse"
       color-interpolation-filters="sRGB"><feFlood
         flood-opacity="0"
         result="BackgroundImageFix"
         id="feFlood8" /><feColorMatrix
         in="SourceAlpha"
         type="matrix"
         values="0 0 0 0 0 0 0 0 0 0 0 0 0 0 0 0 0 0 127 0"
         result="hardAlpha"
         id="feColorMatrix10" /><feOffset
         dy="4"
         id="feOffset12" /><feGaussianBlur
         stdDeviation="2"
         id="feGaussianBlur14" /><feComposite
         in2="hardAlpha"
         operator="out"
         id="feComposite16" /><feColorMatrix
         type="matrix"
         values="0 0 0 0 0 0 0 0 0 0 0 0 0 0 0 0 0 0 0.25 0"
         id="feColorMatrix18" /><feBlend
         mode="normal"
         in2="BackgroundImageFix"
         result="effect1_dropShadow_427_8"
         id="feBlend20" /><feBlend
         mode="normal"
         in="SourceGraphic"
         in2="effect1_dropShadow_427_8"
         result="shape"
         id="feBlend22" /></filter></defs><g
     style="fill:none"
     id="g267"
     transform="translate(5.83335,5.83335)"><path
       d="m 36.6667,73.3333 c -5.0723,0 -9.8389,-0.9631 -14.3,-2.8893 C 17.9056,68.5202 14.025,65.9083 10.725,62.6083 7.425,59.3083 4.81311,55.4278 2.88933,50.9667 0.963111,46.5056 0,41.7389 0,36.6667 0,31.5944 0.963111,26.8278 2.88933,22.3667 4.81311,17.9056 7.425,14.025 10.725,10.725 14.025,7.425 17.9056,4.81189 22.3667,2.88567 26.8278,0.961889 31.5944,0 36.6667,0 c 5.0722,0 9.8389,0.961889 14.3,2.88567 4.4611,1.92622 8.3416,4.53933 11.6416,7.83933 3.3,3.3 5.9119,7.1806 7.8357,11.6417 1.9262,4.4611 2.8893,9.2277 2.8893,14.3 0,5.0722 -0.9631,9.8389 -2.8893,14.3 -1.9238,4.4611 -4.5357,8.3416 -7.8357,11.6416 -3.3,3.3 -7.1805,5.9119 -11.6416,7.8357 -4.4611,1.9262 -9.2278,2.8893 -14.3,2.8893 z m 0,-7.3333 C 44.8556,66 51.7917,63.1583 57.475,57.475 63.1583,51.7917 66,44.8556 66,36.6667 66,28.4778 63.1583,21.5417 57.475,15.8583 51.7917,10.175 44.8556,7.33333 36.6667,7.33333 c -8.1889,0 -15.125,2.84167 -20.8084,8.52497 -5.6833,5.6834 -8.52497,12.6195 -8.52497,20.8084 0,8.1889 2.84167,15.125 8.52497,20.8083 C 21.5417,63.1583 28.4778,66 36.6667,66 Z"
       fill="#aea5d1"
       id="path258" /></g><g
     style="fill:none"
     id="g278"
     transform="translate(16.99999,17.001025)"><path
       d="m 41.5352,38.1523 c 0.4491,0.4491 0.7014,1.0583 0.7014,1.6934 0,0.6351 -0.2523,1.2442 -0.7014,1.6934 -0.4492,0.4491 -1.0583,0.7014 -1.6934,0.7014 -0.6351,0 -1.2443,-0.2523 -1.6934,-0.7014 L 25.5,28.8867 12.8477,41.5351 c -0.4492,0.4491 -1.0583,0.7014 -1.6934,0.7014 -0.6351,0 -1.24426,-0.2523 -1.69337,-0.7014 -0.4491,-0.4491 -0.70141,-1.0583 -0.70141,-1.6934 0,-0.6351 0.25231,-1.2442 0.70141,-1.6933 L 22.1133,25.5 9.46492,12.8476 C 9.01581,12.3985 8.76351,11.7893 8.76351,11.1542 c 0,-0.6351 0.2523,-1.24424 0.70141,-1.69335 0.4491,-0.44911 1.05818,-0.70141 1.69338,-0.70141 0.6351,0 1.2442,0.2523 1.6933,0.70141 L 25.5,22.1132 38.1524,9.45886 c 0.4491,-0.44911 1.0582,-0.70141 1.6934,-0.70141 0.6351,0 1.2442,0.2523 1.6933,0.70141 0.4491,0.44911 0.7014,1.05824 0.7014,1.69334 0,0.6352 -0.2523,1.2443 -0.7014,1.6934 L 28.8868,25.5 Z"
       fill="#aea5d1"
       id="path269" /></g></svg>
